<svg version="1" xmlns="http://www.w3.org/2000/svg" width="400" height="400" viewBox="0 0 300.000000 300.000000"><path d="M116.9 3c-30 7.2-52.3 19.6-73.3 40.6-21.2 21.2-33.5 43.5-40.7 73.7C.2 128.7 0 130.9 0 150s.2 21.3 2.9 32.7c7.2 30.2 19.5 52.5 40.7 73.7 21.2 21.2 43.5 33.5 73.7 40.7 11.4 2.7 13.6 2.9 32.7 2.9s21.3-.2 32.7-2.9c30.2-7.2 52.5-19.5 73.7-40.7 21.2-21.2 33.5-43.5 40.7-73.7 2.7-11.4 2.9-13.6 2.9-32.7s-.2-21.3-2.9-32.7c-7.2-30.2-19.5-52.5-40.7-73.7-21.2-21.2-43.5-33.5-73.7-40.7C171.2.2 169.3 0 149.5.1 130 .1 127.7.4 116.9 3zm60 87.2l7 4.1-1.6 3.6c-1.5 3.4-2.4 5.7-7.8 19.6-2.9 7.6-7 17.7-9.5 23.5-2.8 6.7-10.1 24.9-11.7 29.5-.8 2.2-2.5 6.5-3.8 9.5-1.3 3-3.5 8.6-5 12.5-1.5 3.8-3.8 9.4-5.1 12.3-1.3 2.9-2.4 5.7-2.4 6.3 0 .7-1.2 3.9-2.6 7.3-1.4 3.3-3.5 8.3-4.7 11.1-1.2 2.7-2.2 5.2-2.4 5.4-.2.2-1.1-.3-2.1-1.2-1-1-2.2-1.7-2.6-1.7-.4 0-2.4-1.2-4.4-2.7-2-1.5-3.8-2.8-3.9-2.8-.5-.2 2.6-9.2 4.5-13.5 2.8-6.1 10.1-24.3 12.2-30.6 1-2.8 2.7-6.9 3.9-9.2 1.2-2.3 2.1-4.6 2.1-5.3 0-1.2 3.3-9.4 7.6-18.7 1.3-2.9 2.4-5.8 2.4-6.5 0-.6 1.3-4 3-7.5 1.6-3.4 2.9-6.5 2.8-6.8-.1-.5 2.9-7.9 7.7-19.4 4.3-10.5 6.7-16.5 7.6-19.8.6-1.7 1.2-3.2 1.4-3.2.3 0 3.6 1.9 7.4 4.2zm-75 24.8l4 8-2.5 1.7c-1.3 1-4 2.9-5.9 4.3-1.8 1.4-7 5-11.5 8s-9.4 6.5-10.9 7.6c-1.4 1.2-6.1 3.7-10.4 5.5-4.2 1.8-7.6 3.8-7.4 4.4.2.5 3.2 2 6.6 3.2 3.5 1.2 8.8 3.9 11.9 6 3.2 2.1 6.5 4.2 7.4 4.8 4.8 2.8 21.8 14.6 22.3 15.5.4.6-1 4.4-3 8.5-3.1 6.2-4 7.3-5.4 6.5-.9-.5-5.3-3.3-9.8-6.2-4.5-2.9-15.2-9.7-23.7-15.1-28.1-17.7-26-15.9-26.6-23l-.5-6.2 14.5-9.8c24.2-16.3 25.4-17.2 27-18 .8-.4 5.6-3.6 10.5-7.1 5-3.6 9.1-6.5 9.1-6.5.1-.1 2 3.5 4.3 7.9zm110.8-1.3c1.7 1.2 3.5 2.3 3.8 2.3.4 0 2.1 1 3.8 2.2 1.7 1.3 3.9 2.7 4.9 3.3 2.9 1.7 19.8 12.5 29.6 18.8l9.3 6-.3 6.6-.3 6.5-5.5 3.8c-3 2.1-13.4 9.1-23 15.5-9.6 6.5-20.5 13.9-24.3 16.5-3.7 2.6-6.9 4.8-7.2 4.8-.3 0-2.1-3.5-4.1-7.7l-3.5-7.7 2.3-2.2c3.1-2.8 33.3-23.3 35.5-24 3.1-.9 11.3-4.9 11.3-5.4 0-.3-3.3-1.8-7.3-3.4-7.4-3-16-8-15.2-8.8.3-.3-.1-.5-.7-.5-1.4 0-25.4-15.8-26.3-17.3-.3-.6.5-3.1 1.8-5.7 1.4-2.7 3.1-6 3.8-7.5l1.2-2.8 3.6 2.2c2 1.2 5 3.2 6.8 4.5z"/></svg>